<svg xmlns="http://www.w3.org/2000/svg" width="54.431" height="54.431" viewBox="0 0 54.431 54.431"><path d="M24,40h1.814V52.7H24Z" transform="translate(-4.042 -5.527)"/><path d="M24,56h1.814v1.814H24Z" transform="translate(-4.042 -7.012)"/><path d="M10,40h1.814V52.7H10Z" transform="translate(-2.742 -5.527)"/><path d="M10,56h1.814v1.814H10Z" transform="translate(-2.742 -7.012)"/><path d="M48.466,15.78v.009l-2.014-1.47V7.28A2.722,2.722,0,0,0,45.545,2H40.1A2.73,2.73,0,0,0,37.38,4.722a2.7,2.7,0,0,0,1.805,2.549V9.04L30.812,2.953a2.7,2.7,0,0,0-3.193,0L9.965,15.78a2.716,2.716,0,0,0-.835,3.42l.163.318A2.722,2.722,0,0,0,11.1,20.951a2.459,2.459,0,0,0,.626.073,2.686,2.686,0,0,0,1.161-.263v10.9l-1.969-2.948a.934.934,0,0,0-1.506,0L5.783,34.16a.877.877,0,0,0-.154.5v4.536H2.907A.907.907,0,0,0,2,40.1v3.629a.907.907,0,0,0,.907.907H5.629V47.36H2.907A.907.907,0,0,0,2,48.267V51.9a.907.907,0,0,0,.907.907H5.629v2.722a.907.907,0,0,0,.907.907h7.258a.907.907,0,0,0,.907-.907V52.8h3.629v2.722a.907.907,0,0,0,.907.907h7.258a.907.907,0,0,0,.907-.907V52.8h2.722a.907.907,0,0,0,.907-.907V48.267a.907.907,0,0,0-.907-.907H27.4V44.638h2.722a.907.907,0,0,0,.907-.907V40.1a.907.907,0,0,0-.907-.907H27.4v-.907H47.36a.907.907,0,0,0,.907-.907V33.752a.907.907,0,0,0-.907-.907H45.545V20.761a2.71,2.71,0,0,0,3.592-1.243L49.3,19.2a2.716,2.716,0,0,0-.835-3.42ZM5.629,50.988H3.814V49.174H5.629Zm0-8.165H3.814V41.009H5.629Zm7.258,11.793H7.443V34.931l2.722-4.082,2.722,4.082ZM40.1,3.814h5.443a.907.907,0,1,1,0,1.814H40.1a.907.907,0,0,1,0-1.814Zm4.536,3.629V13L41,10.355V7.443ZM18.329,50.988H14.7V49.174h3.629Zm0-3.629H14.7V44.638h3.629Zm0-4.536H14.7V41.009h3.629Zm7.258,11.793H20.144V34.931l2.722-4.082,2.722,4.082Zm3.629-5.443v1.814H27.4V49.174Zm0-8.165v1.814H27.4V41.009Zm-2.722-8.165c-.036,0-.073.018-.109.018l-2.767-4.146a.934.934,0,0,0-1.506,0L18.484,34.16a.877.877,0,0,0-.154.5v4.536H14.7V19.482L28.671,9.1a.926.926,0,0,1,1.089,0L43.731,19.482V32.844Zm19.958,1.814v1.814H27.4V34.659Zm1.225-16.266-.163.318a.885.885,0,0,1-.6.472.876.876,0,0,1-.753-.154L30.84,7.652a2.694,2.694,0,0,0-3.248,0L12.269,19.028a.846.846,0,0,1-.753.154.885.885,0,0,1-.6-.472l-.163-.318a.907.907,0,0,1,.281-1.143L28.68,4.413a.917.917,0,0,1,1.07,0L47.4,17.25a.916.916,0,0,1,.381.735.934.934,0,0,1-.1.408Z" transform="translate(-2 -2)"/><path d="M45.979,54.886H44.165V53.072H57.773a.907.907,0,0,0,.907-.907V48.536a.907.907,0,0,0-.907-.907H46.886V44.907A.907.907,0,0,0,45.979,44H36.907a.907.907,0,0,0-.907.907v3.629a.907.907,0,0,0,.907.907h1.814v5.443H36.907a.907.907,0,0,0-.907.907v3.629a.907.907,0,0,0,.907.907h9.072a.907.907,0,0,0,.907-.907V55.793A.907.907,0,0,0,45.979,54.886Zm10.886-3.629h-12.7V49.443h12.7ZM37.814,45.814h7.258v1.814H37.814Zm2.722,3.629H42.35v5.443H40.536Zm4.536,9.072H37.814V56.7h7.258Z" transform="translate(-5.156 -5.898)"/><path d="M50,57.814h.907v3.629h1.814V57.814h.907V56H50Z" transform="translate(-6.455 -7.012)"/><path d="M61.443,58.907H57.814V58H56v3.629h1.814v-.907h3.629Z" transform="translate(-7.012 -7.197)"/></svg>