<svg xmlns="http://www.w3.org/2000/svg" width="45.359" height="54.431" viewBox="0 0 45.359 54.431"><path d="M77.527,16.287A.907.907,0,0,0,76.865,16H56.907a.907.907,0,0,0-.905.966l2.72,41.7V65.9a4.541,4.541,0,0,0,4.536,4.536H96.824A4.541,4.541,0,0,0,101.36,65.9v-12.7a4.542,4.542,0,0,0-2.722-4.156v-3.1a10.149,10.149,0,0,0-3.478-7.764,11.658,11.658,0,0,0-3.474-2.162.875.875,0,0,0-1.134.484,4.536,4.536,0,0,1-1.775,1.586c-1.317.756-3.8,1.657-8.168,1.657a16.54,16.54,0,0,0-4.356.509l1.518-23.281A.907.907,0,0,0,77.527,16.287ZM75.9,17.814l-.118,1.814H57.994l-.118-1.814ZM70.515,64.988V54.1h29.03V64.988Zm-5.443,0v-.907a.908.908,0,0,1,.907-.907h1.814a.908.908,0,0,1,.907.907v.907ZM68.7,61.516a2.709,2.709,0,0,0-.907-.156H65.979a2.725,2.725,0,0,0-2.722,2.722v.907H60.536V59.545H68.7ZM60.692,66.8h8.1a4.518,4.518,0,0,0,.818,1.814H63.258A2.726,2.726,0,0,1,60.692,66.8Zm36.132,1.814H73.237A2.726,2.726,0,0,1,70.671,66.8H99.389A2.726,2.726,0,0,1,96.824,68.617Zm2.566-16.329H70.671a2.726,2.726,0,0,1,2.566-1.814H96.824A2.726,2.726,0,0,1,99.389,52.288ZM73.237,48.659V46.844H96.824v1.814ZM89.891,39.53A7.1,7.1,0,0,0,91.705,38,10.466,10.466,0,0,1,94,39.57a8.218,8.218,0,0,1,2.782,5.461H73.286a3.16,3.16,0,0,1,.732-1.5c1.123-1.294,3.4-1.978,6.59-1.978C84.565,41.553,87.688,40.872,89.891,39.53ZM72.609,42.386a4.928,4.928,0,0,0-1.179,3.432.91.91,0,0,0-.008.119v3.1A4.542,4.542,0,0,0,68.7,53.195v4.536H60.479L58.112,21.443H75.661L74.386,40.978a6.058,6.058,0,0,0-1.777,1.409Z" transform="translate(-56 -16)"/><path d="M260.105,368.87a13.934,13.934,0,0,0-9.7,0c-2.1.9-2.41,2.114-2.41,2.758s.313,1.86,2.41,2.758a13.934,13.934,0,0,0,9.7,0c2.1-.9,2.41-2.114,2.41-2.758S262.2,369.769,260.105,368.87Zm-4.848,4.573c-3.377,0-5.443-1.175-5.443-1.814s2.067-1.814,5.443-1.814,5.443,1.175,5.443,1.814S258.634,373.443,255.258,373.443Z" transform="translate(-226.227 -328.084)"/><path d="M107.793,80H96.907a.907.907,0,0,0-.907.907V86.35a.907.907,0,0,0,.907.907h10.886a.907.907,0,0,0,.907-.907V80.907A.907.907,0,0,0,107.793,80Zm-.907,5.443H97.814V81.814h9.072Z" transform="translate(-91.464 -72.742)"/><path d="M120.165,160h-7.258a.907.907,0,1,0,0,1.814h7.258a.907.907,0,0,0,0-1.814Z" transform="translate(-105.65 -143.671)"/></svg>